<svg width="10" height="36" viewBox="0 0 10 36" fill="none" xmlns="http://www.w3.org/2000/svg">
<path d="M6.55783 8.93797C6.55783 7.31802 6.55783 4.57764e-05 6.55783 4.57764e-05H5.35478H4.64239H3.4399C3.4399 4.57764e-05 3.4399 7.31802 3.4399 8.93797C3.4399 10.5579 0.394501 12.5244 0.394501 14.8332C0.394501 17.1415 0.394501 33.8401 0.394501 34.4289C0.394501 35.0179 0.788426 36 1.67112 36C2.27203 36 3.75251 36 4.64352 36C5.0643 36 5.35591 36 5.35591 36C6.24693 36 7.72675 36 8.32775 36C9.2111 36 9.6055 35.0178 9.6055 34.4289C9.6055 33.84 9.6055 17.1414 9.6055 14.8332C9.60541 12.5244 6.55783 10.559 6.55783 8.93797ZM4.11287 11.5626C3.91571 11.8318 3.6954 12.1713 3.45598 12.5629C3.21372 12.9556 2.98414 13.4133 2.75068 13.9098C2.6617 14.1636 2.57045 14.4295 2.49414 14.6958C2.4914 14.9782 2.40185 15.1864 2.44091 15.5407C2.46455 16.1977 2.49036 16.8887 2.51665 17.6039C2.56393 19.0349 2.57272 20.5621 2.58482 22.088C2.58151 25.141 2.48923 28.1953 2.34644 30.4848C2.28385 31.6296 2.18116 32.5831 2.13274 33.2512C2.07346 33.9191 2.024 34.3014 2.024 34.3014C2.024 34.3014 1.97408 33.9191 1.9147 33.2512C1.86638 32.5832 1.76359 31.6297 1.701 30.4848C1.55822 28.1953 1.46583 25.141 1.46262 22.088C1.47359 20.562 1.48238 19.0349 1.5307 17.6039C1.55708 16.8888 1.5829 16.1977 1.60654 15.5407C1.595 15.2359 1.70979 14.8217 1.77522 14.4921C1.90212 14.1817 2.04273 13.8938 2.17681 13.6225C2.34001 13.3731 2.49433 13.1341 2.6426 12.9073C2.81129 12.7002 2.97109 12.5047 3.12049 12.319C3.43139 11.9608 3.70769 11.6581 3.9489 11.4219C4.42566 10.9451 4.73165 10.7111 4.73165 10.7111C4.73165 10.7111 4.49299 11.016 4.11287 11.5626Z" fill="#A30000"/>
</svg>
